<svg id="Group_16" data-name="Group 16" xmlns="http://www.w3.org/2000/svg" xmlns:xlink="http://www.w3.org/1999/xlink" width="20.271" height="28" viewBox="0 0 20.271 28">
  <defs>
    <clipPath id="clip-path">
      <rect id="Rectangle_16" data-name="Rectangle 16" width="20.271" height="28" fill="#d8b15d"/>
    </clipPath>
  </defs>
  <g id="Group_17" data-name="Group 17" clip-path="url(#clip-path)">
    <path id="Path_42" data-name="Path 42" d="M9.917,28a1.91,1.91,0,0,1-.651-.515A54.982,54.982,0,0,1,2.189,17.336,19.529,19.529,0,0,1,.215,12.128,9.794,9.794,0,0,1,1.992,4.117,9.609,9.609,0,0,1,8.208.19a9.834,9.834,0,0,1,9.734,3.5,9.664,9.664,0,0,1,2.3,7.144,13.646,13.646,0,0,1-1.167,4.383A39.962,39.962,0,0,1,14.545,23q-1.678,2.33-3.556,4.5a1.446,1.446,0,0,1-.689.5Zm.218-12.76a5.107,5.107,0,1,0-5.1-5.122,5.114,5.114,0,0,0,5.1,5.122" transform="translate(0 0)" fill="#d8b15d"/>
  </g>
</svg>
