<svg id="Group_15" data-name="Group 15" xmlns="http://www.w3.org/2000/svg" xmlns:xlink="http://www.w3.org/1999/xlink" width="26.959" height="26.985" viewBox="0 0 26.959 26.985">
  <defs>
    <clipPath id="clip-path">
      <rect id="Rectangle_15" data-name="Rectangle 15" width="26.959" height="26.985" fill="#d8b15d"/>
    </clipPath>
  </defs>
  <g id="Group_14" data-name="Group 14" clip-path="url(#clip-path)">
    <path id="Path_41" data-name="Path 41" d="M5.641,0a3.418,3.418,0,0,1,1.41.632c.066.057.138.109.2.171,1.206,1.2,2.415,2.405,3.614,3.616a2.54,2.54,0,0,1,.426,3.2,2.227,2.227,0,0,1-1.175.967,2.67,2.67,0,0,0-1.658,1.473,2.252,2.252,0,0,0-.1,1.516,8.454,8.454,0,0,0,1.708,3.169,12.493,12.493,0,0,0,4.131,3.409,3.588,3.588,0,0,0,1.726.492,2.438,2.438,0,0,0,2.407-1.71,2.516,2.516,0,0,1,4.161-.893c1.252,1.232,2.5,2.471,3.726,3.728a2.674,2.674,0,0,1-.027,3.731c-.816.836-1.65,1.655-2.477,2.48a3.6,3.6,0,0,1-2.505,1,9.544,9.544,0,0,1-3.817-.754,23.367,23.367,0,0,1-5.522-3.119,36.982,36.982,0,0,1-8.329-8.473A21.825,21.825,0,0,1,.616,9.1a12.214,12.214,0,0,1-.558-2.43C.05,6.6.091,6.521,0,6.484v-.9c.089-.039.051-.121.058-.184A3.724,3.724,0,0,1,1.2,3.018c.7-.664,1.375-1.355,2.05-2.045A2.91,2.91,0,0,1,4.7.07c.04-.009.089-.013.1-.07Z" fill="#d8b15d"/>
  </g>
</svg>
