<svg id="katman_1" data-name="katman 1" xmlns="http://www.w3.org/2000/svg" xmlns:xlink="http://www.w3.org/1999/xlink" width="225" height="66.377" viewBox="0 0 225 66.377">
  <defs>
    <linearGradient id="linear-gradient" y1="0.5" x2="1" y2="0.5" gradientUnits="objectBoundingBox">
      <stop offset="0" stop-color="#222"/>
      <stop offset="1" stop-color="#3e3e3e"/>
    </linearGradient>
    <linearGradient id="linear-gradient-2" x1="0" y1="0.5" y2="0.5" xlink:href="#linear-gradient"/>
  </defs>
  <g id="Group_6" data-name="Group 6">
    <g id="Group_1" data-name="Group 1" transform="translate(63.484 12.393)">
      <path id="Path_1" data-name="Path 1" d="M81.442,15.73H99.368v1.786L85.861,36.525H99.368v3.754H80.32V38.074L93.583,19.342H81.442Z" transform="translate(-80.32 -15.69)" fill="#0d0d0d"/>
      <path id="Path_2" data-name="Path 2" d="M136.053,35.126H122.759l-2.316,5.161H116.27L127.288,15.73h4.276l11.018,24.557h-4.173l-2.347-5.161Zm-6.631-15.262-5.193,11.682h10.386Z" transform="translate(-87.856 -15.69)" fill="#0d0d0d"/>
      <path id="Path_3" data-name="Path 3" d="M163.53,40.288V15.77h17.365V19.6H167.458v7.469h12.773v3.652H167.458v9.572Z" transform="translate(-97.762 -15.699)" fill="#0d0d0d"/>
      <path id="Path_4" data-name="Path 4" d="M219.659,40.279H201.52V15.73h18.037v3.825h-14.1v6.631H219v3.644H205.456v6.592h14.2Z" transform="translate(-105.725 -15.69)" fill="#0d0d0d"/>
      <path id="Path_5" data-name="Path 5" d="M263.1,40.269H258.51l-7.469-8.489h-5.193v8.489H241.92V15.68c3.825,0,7.611.032,11.437.032,5.683,0,8.663,3.9,8.663,8.03a7.24,7.24,0,0,1-6.663,7.643l7.335,8.173.419.7ZM245.84,19.292V28.2h7.469c3.264,0,4.7-2.071,4.7-4.387a4.316,4.316,0,0,0-4.663-4.521Z" transform="translate(-114.193 -15.68)" fill="#0d0d0d"/>
    </g>
    <g id="Group_4" data-name="Group 4" transform="translate(0 12.623)">
      <path id="Path_6" data-name="Path 6" d="M25.872,30.68,14.72,41.832H25.872Z" transform="translate(-3.085 -19.053)" fill="url(#linear-gradient)"/>
      <path id="Path_7" data-name="Path 7" d="M11.332,45.23.18,56.374H11.332Z" transform="translate(-0.038 -22.103)" fill="url(#linear-gradient-2)"/>
      <path id="Path_8" data-name="Path 8" d="M0,59.59V70.734L11.152,59.59Z" transform="translate(0 -25.113)" fill="url(#linear-gradient-2)"/>
      <path id="Path_9" data-name="Path 9" d="M40.232,30.51H29.08V41.654Z" transform="translate(-6.095 -19.018)" fill="url(#linear-gradient-2)"/>
      <path id="Path_10" data-name="Path 10" d="M14.54,45.05V56.194L25.692,45.05Z" transform="translate(-3.048 -22.065)" fill="url(#linear-gradient-2)"/>
      <path id="Path_11" data-name="Path 11" d="M40.232,15.97H29.08V27.114Z" transform="translate(-6.095 -15.97)" fill="url(#linear-gradient-2)"/>
      <path id="Path_12" data-name="Path 12" d="M25.692,15.97H14.54V27.114Z" transform="translate(-3.048 -15.97)" fill="url(#linear-gradient-2)"/>
      <path id="Path_13" data-name="Path 13" d="M54.772,15.97H43.62V27.114Z" transform="translate(-9.143 -15.97)" fill="url(#linear-gradient-2)"/>
      <path id="Path_14" data-name="Path 14" d="M40.412,16.14,29.26,27.292H40.412Z" transform="translate(-6.133 -16.006)" fill="url(#linear-gradient)"/>
      <path id="Path_15" data-name="Path 15" d="M25.872,16.14,14.72,27.292H25.872Z" transform="translate(-3.085 -16.006)" fill="url(#linear-gradient)"/>
      <path id="Path_16" data-name="Path 16" d="M11.332,16.14.18,27.292H11.332Z" transform="translate(-0.038 -16.006)" fill="url(#linear-gradient)"/>
      <g id="Group_3" data-name="Group 3" transform="translate(4.086 4.221)">
        <path id="Path_17" data-name="Path 17" d="M19.71,76.082H30.862V64.93Z" transform="translate(-8.218 -30.453)" fill="url(#linear-gradient)"/>
        <g id="Group_2" data-name="Group 2">
          <path id="Path_18" data-name="Path 18" d="M34.07,64.76V75.9L45.222,64.76Z" transform="translate(-11.228 -30.418)" fill="url(#linear-gradient-2)"/>
          <path id="Path_19" data-name="Path 19" d="M19.53,64.76V75.9L30.682,64.76Z" transform="translate(-8.18 -30.418)" fill="url(#linear-gradient-2)"/>
          <path id="Path_20" data-name="Path 20" d="M16.322,64.93,5.17,76.082H16.322Z" transform="translate(-5.17 -30.453)" fill="url(#linear-gradient)"/>
          <path id="Path_21" data-name="Path 21" d="M45.4,76.082V64.93L34.25,76.082Z" transform="translate(-11.265 -30.453)" fill="url(#linear-gradient)"/>
          <path id="Path_22" data-name="Path 22" d="M45.222,50.22H34.07V61.364Z" transform="translate(-11.228 -27.37)" fill="url(#linear-gradient-2)"/>
          <path id="Path_23" data-name="Path 23" d="M30.862,50.4,19.71,61.544H30.862Z" transform="translate(-8.218 -27.408)" fill="url(#linear-gradient-2)"/>
          <path id="Path_24" data-name="Path 24" d="M45.4,35.86,34.25,47H45.4Z" transform="translate(-11.265 -24.36)" fill="url(#linear-gradient-2)"/>
          <path id="Path_25" data-name="Path 25" d="M59.762,35.68H48.61V46.824Z" transform="translate(-14.276 -24.322)" fill="url(#linear-gradient-2)"/>
          <path id="Path_26" data-name="Path 26" d="M59.762,64.76H48.61V75.9Z" transform="translate(-14.276 -30.418)" fill="url(#linear-gradient-2)"/>
          <path id="Path_27" data-name="Path 27" d="M59.942,21.31,48.79,32.462H59.942Z" transform="translate(-14.313 -21.31)" fill="url(#linear-gradient)"/>
        </g>
      </g>
    </g>
    <path id="Path_28" data-name="Path 28" d="M281.417,6.2a6.134,6.134,0,1,1-12.267,0,6.134,6.134,0,1,1,12.267,0Zm-6.141,4.79c2.924,0,4.568-2.1,4.568-4.79s-1.644-4.806-4.568-4.806-4.553,2.126-4.568,4.806C270.723,8.884,272.375,10.986,275.276,10.986Zm1.344-3.968c2.339-.458,1.968-3.991-.783-3.991h-2.956v6.3h1.431V7.256h.8l1.628,2.071h1.541v-.3Zm-.783-2.7a.858.858,0,1,1-.016,1.715h-1.51V4.316Z" transform="translate(-56.417)" fill="#0d0d0d"/>
    <g id="Group_5" data-name="Group 5" transform="translate(63.01 50.18)">
      <path id="Path_29" data-name="Path 29" d="M84.043,72.351,79.72,65.72h.6L84.3,71.877l3.96-6.157h.6l-4.308,6.631v4.371h-.506Z" transform="translate(-79.72 -63.955)" fill="#0d0d0d"/>
      <path id="Path_30" data-name="Path 30" d="M103.21,65.72h.6l4.932,11h-.6l-1.273-2.861h-6.742l-1.257,2.861h-.6l4.932-11Zm3.454,7.651L103.5,66.186l-3.193,7.185h6.347Z" transform="translate(-83.608 -63.955)" fill="#0d0d0d"/>
      <path id="Path_31" data-name="Path 31" d="M121.686,72.768v3.944h-.506v-11h4.727c4.624,0,4.624,7.074,0,7.058h-4.229Zm4.229-.49c3.928,0,3.928-6.078,0-6.078h-4.229v6.078Z" transform="translate(-88.41 -63.953)" fill="#0d0d0d"/>
      <path id="Path_32" data-name="Path 32" d="M141.35,76.722v-11h.506v11Z" transform="translate(-92.638 -63.955)" fill="#0d0d0d"/>
      <path id="Path_33" data-name="Path 33" d="M166.128,63.98a.494.494,0,1,1-.988,0A.494.494,0,0,1,166.128,63.98Zm-.759,12.275v-11h.506v11Z" transform="translate(-97.625 -63.487)" fill="#0d0d0d"/>
      <path id="Path_34" data-name="Path 34" d="M177.16,65.72h.047l7.856,9.682-.047-2.545V65.72h.506v11l-7.9-9.73.047,2.592v7.137h-.506Z" transform="translate(-100.145 -63.955)" fill="#0d0d0d"/>
      <path id="Path_35" data-name="Path 35" d="M201.773,78.082l.269-1.257a5.052,5.052,0,0,1-4.292-2.308l.443-.253a4.654,4.654,0,0,0,4.007,2.071c1.383,0,3.754-.364,3.754-2.5.016-1.857-2.016-2.166-3.9-2.561-1.952-.427-4.007-.8-4.007-2.719-.063-2.34,2.34-2.988,4.1-2.988a4.785,4.785,0,0,1,3.865,1.62l-.348.348a4.268,4.268,0,0,0-3.533-1.478c-1.257,0-3.58.316-3.58,2.5,0,1.494,1.652,1.842,3.644,2.229,2.071.443,4.26.83,4.26,3.051-.016,2.34-2.292,2.924-3.976,2.972l-.19.877c1.288-.095,1.778.719,1.525,1.462a1.5,1.5,0,0,1-1.541.972,1.761,1.761,0,0,1-1.6-.767l.316-.269a1.423,1.423,0,0,0,1.288.617,1.046,1.046,0,0,0,1.083-.664c.19-.569-.221-1.162-1.573-.941l-.016-.016Z" transform="translate(-104.46 -63.924)" fill="#0d0d0d"/>
      <path id="Path_36" data-name="Path 36" d="M221.95,65.72h.6l4.932,11h-.6l-1.273-2.861h-6.742l-1.257,2.861h-.6l4.932-11Zm3.454,7.651-3.162-7.185-3.193,7.185H225.4Z" transform="translate(-108.498 -63.955)" fill="#0d0d0d"/>
      <path id="Path_37" data-name="Path 37" d="M243.43,65.72h.6l4.932,11h-.6l-1.273-2.861h-6.742l-1.257,2.861h-.6l4.932-11Zm3.454,7.651-3.162-7.185-3.193,7.185h6.347Z" transform="translate(-113 -63.955)" fill="#0d0d0d"/>
      <path id="Path_38" data-name="Path 38" d="M258.238,65.72h8.75v.49h-4.134V76.722h-.506V66.21H258.23v-.49Z" transform="translate(-117.138 -63.955)" fill="#0d0d0d"/>
    </g>
  </g>
</svg>
